<?xml version="1.0" encoding="UTF-8"?>
<svg id="Layer_2" data-name="Layer 2" xmlns="http://www.w3.org/2000/svg" viewBox="0 0 166.76 48.07">
  <defs>
    <style>
      .cls-1 {
        fill: #231f20;
        stroke: #231f20;
        stroke-miterlimit: 10;
        stroke-width: .25px;
      }
    </style>
  </defs>
  <g id="Layer_1-2" data-name="Layer 1">
    <g>
      <path class="cls-1" d="M.12,28.69c0-2.15,2.54-4.49,5.68-5.28l.2.75c-2.78.69-5.07,2.76-5.07,4.53,0,1.1.99,1.67,3.04,1.67,2.38,0,5.21-.94,7.41-2.46,2.12-1.47,3.27-3.22,3.27-4.92,0-2.25-2.13-3.43-4.54-4.78-2.55-1.42-5.39-3.01-5.39-6.18s3.79-7.05,9.5-9.71C17.25.92,20.31.12,22.69.12s3.73.84,3.73,2.54c0,2.55-2.38,5.81-6.57,9.15l-.5-.6c3.99-3.17,6.27-6.27,6.27-8.54,0-1.22-.88-1.78-2.93-1.78-2.28,0-5.2.76-8.13,2.12-5.4,2.52-9.04,6.16-9.04,9.02s2.43,4.08,4.98,5.51c2.4,1.34,4.95,2.76,4.95,5.45,0,1.96-1.29,3.93-3.61,5.54-2.31,1.59-5.35,2.6-7.87,2.6s-3.84-.85-3.84-2.44Z"/>
      <path class="cls-1" d="M20.78,24.08c0-.98.44-1.95,1.35-3.08l.62.48c-1.05,1.3-1.17,2.05-1.17,2.6,0,.42.29.69.75.69,1.79,0,5.28-1.61,8.02-3.73l.5.6c-2.88,2.22-6.53,3.89-8.51,3.89-.9,0-1.55-.6-1.55-1.45ZM22.64,18.55c-.05-.2.03-.43.21-.58q.05-.04.11-.08s0,0-.04,0c-.03-.18.09-.37.26-.45.34-.2.71-.2.9-.04.24.12.27.42.11.78-.16.33-.61.67-1.18.67-.22,0-.34-.1-.36-.28Z"/>
      <path class="cls-1" d="M24.48,14.97c2.82-.69,6.98-1.14,11.06-1.32,3.48-4.55,6.71-7.79,8.25-7.79.48,0,.83.31.83.77,0,1.07-1.89,3.52-5.21,6.92,3.37-.02,6.33.16,7.95.53,1.28.29,1.76.92,1.81,1.84l-.84.18c-.06-.68-.32-1.08-1.15-1.26-1.71-.38-4.92-.58-8.51-.55-2.09,2.09-4.66,4.5-7.62,7.13-4.01,6.47-7.38,13.48-7.38,17.52,0,.59.17.85.33,1.06.32.39-.28.76-.59.48-.09-.08-.54-.41-.54-1.54,0-4.15,3.42-11.31,7.56-17.91l-.06-.06c.07-.06.15-.13.22-.2,1.41-2.25,2.91-4.42,4.38-6.39-3.81.18-7.63.6-10.27,1.3-.47.12-.69-.61-.22-.73ZM32.63,18.95c1.82-1.65,3.47-3.21,4.9-4.63-.55,0-1.11.03-1.68.05-1.06,1.41-2.14,2.96-3.22,4.58ZM36.42,13.62c.62-.03,1.25-.04,1.86-.05,3.47-3.49,5.53-6,5.53-6.81,0-.08-.04-.12-.13-.12-1.27,0-4.11,2.87-7.26,6.99Z"/>
      <path class="cls-1" d="M37.87,25.58c-1.01,0-1.6-.51-1.6-1.41,0-1.8,1.82-3.98,3.34-3.98.66,0,1.08.33,1.08.93,0,1.07-1.41,1.68-3.11,1.47-.3.52-.5,1.08-.5,1.57,0,.45.21.64.8.64,2.38,0,7.03-2.46,8.81-3.78l.45.61c-1.81,1.34-6.67,3.93-9.26,3.93ZM38.09,21.87c1.01.04,1.79-.28,1.79-.69,0-.16-.12-.21-.28-.21-.47,0-1.03.37-1.51.91Z"/>
      <path class="cls-1" d="M46.3,31.07c0-1.03.47-2.19,1.28-3.18l.62.48c-.71.85-1.1,1.82-1.1,2.7,0,1.05.57,1.66,1.55,1.66,2.67,0,8.5-4.01,16.84-11.6,1.18-1.08,2.38-2.21,3.53-3.35,3.6-7.29,10.09-16.39,12.54-16.39.52,0,.76.34.76.86,0,2.08-5.85,9.31-12.76,16.09-1.35,2.76-2.25,5.25-2.25,6.82s.57,2.31,1.75,2.31c5.26,0,22.32-21.53,23.55-23.45l.68.41c-.09.14-.27.39-.52.73-2.12,2.98-12.08,17.6-12.08,22.25,0,.75.39,1.14,1.11,1.14,2.47,0,6.18-3.07,11.69-7.53l.48.6c-5.56,4.55-9.46,7.69-12.17,7.69-1.17,0-1.9-.73-1.91-1.9,0-3.07,3.99-10.04,7.49-15.56-5.92,7.02-14.62,16.39-18.32,16.39-1.66,0-2.55-1.08-2.55-3.08,0-1.25.6-3.18,1.57-5.39-.69.65-1.37,1.29-2.06,1.92-8.54,7.77-14.41,11.8-17.37,11.8-1.42,0-2.35-.96-2.35-2.43ZM70.79,16.01c5.88-6.02,10.74-12.09,10.74-13.61,0-.11-.07-.17-.14-.17-1.62,0-6.98,7.17-10.6,13.78Z"/>
      <path class="cls-1" d="M92.51,22.67c0-1.23,1.49-2.35,3.08-2.33.76,0,1.21.17,1.66.44l-.44.64c-.36-.22-.65-.31-1.22-.32-1.15,0-2.28.79-2.28,1.57,0,.15.08.22.32.23,1.25.05,4.78-1.61,5.79-2.68.02-.02.03-.04.04-.05.04-.04.08-.1.12-.14l.66.43c-.04.07-.11.14-.17.21-1.35,1.57-2.31,3.37-2.3,4.3,0,.48.24.72.69.72,1.72,0,5.52-1.97,8.98-4.64l.49.6c-2.77,2.13-7.16,4.8-9.46,4.8-.9,0-1.49-.58-1.49-1.49,0-.7.39-1.73,1.06-2.83-1.55.85-3.45,1.57-4.43,1.53-.64-.03-1.09-.41-1.09-1Z"/>
      <path class="cls-1" d="M104.17,25.88c.2-.33.38-.64.55-.93.76-1.31,1.42-2.46,3.19-4.53l.6.5c-1.33,1.56-2.01,2.57-2.76,3.77,2.29-1.84,3.82-2.66,4.75-2.66.52,0,.99.44.99.97,0,.56-.36,1.25-.41,1.81-.04.32.15.5.54.5,1.66,0,6.67-3.04,8.4-4.27l.49.6c-1.73,1.23-6.99,4.43-8.89,4.43-.85,0-1.42-.56-1.34-1.33.08-.67.41-1.33.41-1.74,0-.11-.1-.2-.27-.2-.82,0-2.83,1.24-5.57,3.48-.36.3-.95.06-.69-.39Z"/>
      <path class="cls-1" d="M119.08,22.67c0-1.23,1.49-2.35,3.08-2.33.76,0,1.21.17,1.66.44l-.44.64c-.36-.22-.65-.31-1.22-.32-1.15,0-2.28.79-2.28,1.57,0,.15.08.22.32.23,1.25.05,4.78-1.61,5.79-2.68.02-.02.03-.04.04-.05.04-.04.08-.1.12-.14l.66.43c-.04.07-.11.14-.17.21-1.35,1.57-2.31,3.37-2.3,4.3,0,.48.24.72.69.72,1.72,0,5.52-1.97,8.98-4.64l.49.6c-2.77,2.13-7.16,4.8-9.46,4.8-.9,0-1.49-.58-1.49-1.49,0-.7.39-1.73,1.06-2.83-1.55.85-3.45,1.57-4.43,1.53-.64-.03-1.09-.41-1.09-1Z"/>
      <path class="cls-1" d="M133.06,22.64c0-1.21,1.49-2.32,3.08-2.32.56,0,1.05.09,1.46.28l-.39.67c-.29-.12-.64-.19-1.07-.19-1.16,0-2.28.79-2.28,1.56,0,.16.08.23.29.23,1.47,0,5.25-1.82,5.89-2.73l.75.27c-.25.64-.69,1.87-1.33,3.45,3.86-1.54,6.84-2.59,7.83-2.9l.25.73c-1.04.33-4.31,1.49-8.5,3.18-1.65,3.91-4.33,9.47-8.1,14.16-4.76,5.91-10.09,8.92-15.78,8.92-3.05,0-5.35-1.76-5.35-4.16,0-3.75,5.16-8.26,15.12-13.4,4.55-2.35,9.44-4.47,13.5-6.12.44-1.06.8-1.99,1.08-2.74-1.58,1.06-4.09,2.11-5.36,2.11-.64,0-1.09-.4-1.09-1ZM115.16,47.18c5.44,0,10.53-2.91,15.16-8.64,3.5-4.33,6.05-9.45,7.69-13.26-3.89,1.58-8.43,3.58-12.7,5.78-9.63,4.96-14.7,9.35-14.7,12.72,0,1.96,1.93,3.4,4.55,3.4Z"/>
      <path class="cls-1" d="M147.22,25.58c-1.01,0-1.6-.51-1.6-1.41,0-1.8,1.82-3.98,3.34-3.98.66,0,1.08.33,1.08.93,0,1.07-1.41,1.68-3.11,1.47-.3.52-.5,1.08-.5,1.57,0,.45.21.64.8.64,2.38,0,7.03-2.46,8.81-3.78l.45.61c-1.81,1.34-6.67,3.93-9.26,3.93ZM147.44,21.87c1.01.04,1.79-.28,1.79-.69,0-.16-.12-.21-.28-.21-.47,0-1.03.37-1.51.91Z"/>
      <path class="cls-1" d="M153.33,26.72c.59-1.05,2.59-5.15,3.27-7.34l.77.23c-.25.8-.66,1.81-1.1,2.82,1.17-1.31,2.39-2.12,3.42-2.12.84,0,1.25.59,1.57,1.04.36.51.65.9,1.35.9.81,0,2.34-.52,3.48-1.22l.48.6c-1.25.77-3,1.38-3.96,1.38-1.13,0-1.63-.71-2-1.23-.32-.44-.52-.71-.93-.71-1.35,0-3.52,2.07-5.05,4.8-.24.48-.44.88-.6,1.17l-.71-.34Z"/>
    </g>
  </g>
</svg>